<svg width="40" height="40" viewBox="0 0 40 40" fill="none" xmlns="http://www.w3.org/2000/svg">
<path d="M40 20C40 31.0457 31.0457 40 20 40C8.9543 40 0 31.0457 0 20C0 8.9543 8.9543 0 20 0C31.0457 0 40 8.9543 40 20Z" fill="#61E329"/>
<path d="M20.264 26.816C20.104 26.816 19.976 26.768 19.88 26.672C19.784 26.576 19.736 26.448 19.736 26.288V21.032H14.528C14.368 21.032 14.24 20.984 14.144 20.888C14.048 20.792 14 20.664 14 20.504V20.168C14 20.008 14.048 19.88 14.144 19.784C14.24 19.688 14.368 19.64 14.528 19.64H19.736V14.528C19.736 14.368 19.784 14.24 19.88 14.144C19.976 14.048 20.104 14 20.264 14H20.624C20.784 14 20.912 14.048 21.008 14.144C21.104 14.24 21.152 14.368 21.152 14.528V19.64H26.384C26.544 19.64 26.672 19.688 26.768 19.784C26.864 19.88 26.912 20.008 26.912 20.168V20.504C26.912 20.664 26.864 20.792 26.768 20.888C26.672 20.984 26.544 21.032 26.384 21.032H21.152V26.288C21.152 26.448 21.104 26.576 21.008 26.672C20.912 26.768 20.784 26.816 20.624 26.816H20.264Z" fill="white"/>
</svg>
