<svg width="39" height="39" viewBox="0 0 39 39" fill="none" xmlns="http://www.w3.org/2000/svg">
<path d="M0 10C0 4.47715 4.47715 0 10 0H29C34.5228 0 39 4.47715 39 10V29C39 34.5228 34.5228 39 29 39H10C4.47715 39 0 34.5228 0 29V10Z" fill="#FEF2F2"/>
<path d="M28 20C28 19.4477 27.5523 19 27 19H13C12.4477 19 12 19.4477 12 20V27C12 27.5523 12.4477 28 13 28H27C27.5523 28 28 27.5523 28 27V20ZM24 14C24 12.9391 23.5783 11.922 22.8281 11.1719C22.078 10.4217 21.0609 10 20 10C18.9391 10 17.922 10.4217 17.1719 11.1719C16.4217 11.922 16 12.9391 16 14V17H24V14ZM26 17H27C28.6569 17 30 18.3431 30 20V27C30 28.6569 28.6569 30 27 30H13C11.3431 30 10 28.6569 10 27V20C10 18.3431 11.3431 17 13 17H14V14C14 12.4087 14.6326 10.883 15.7578 9.75781C16.883 8.63259 18.4087 8 20 8C21.5913 8 23.117 8.63259 24.2422 9.75781C25.3674 10.883 26 12.4087 26 14V17Z" fill="#EF4444"/>
</svg>
