<svg width="55" height="67" viewBox="0 0 55 67" fill="none" xmlns="http://www.w3.org/2000/svg">
<path fill-rule="evenodd" clip-rule="evenodd" d="M24.4854 0.536018C26.3712 -0.178673 28.4469 -0.178673 30.3327 0.536018L49.3668 7.755C50.9673 8.36158 52.3473 9.45148 53.3216 10.8786C54.296 12.3056 54.8182 14.0017 54.8182 15.7393V33.6659C54.8182 42.1304 50.3657 49.275 45.3651 54.6536C40.3401 60.057 34.5172 63.9485 31.2037 65.9376C30.0554 66.6329 28.7439 67 27.4076 67C26.0712 67 24.7597 66.6329 23.6114 65.9376C20.301 63.9454 14.475 60.057 9.45004 54.6536C4.4555 49.275 0 42.1304 0 33.6659V15.7393C-3.62946e-06 14.0017 0.522186 12.3056 1.49655 10.8786C2.47091 9.45148 3.85086 8.36158 5.45136 7.755L24.4854 0.536018ZM6.09089 31.9149C6.09089 21.0166 15.7378 12.1818 27.6379 12.1818C39.538 12.1818 49.1849 21.0166 49.1849 31.9149C49.1849 42.8131 39.538 51.6479 27.6379 51.6479C15.7378 51.6479 6.09089 42.8131 6.09089 31.9149ZM9.08626 30.5694C9.6438 24.0316 14.2298 18.5297 20.5728 16.1439C17.9254 19.4924 16.1482 24.6764 15.9119 30.5694H9.08626ZM21.9068 19.25C23.8165 16.0437 25.9717 14.8727 27.6379 14.8727C29.3041 14.8727 31.4594 16.0437 33.369 19.25C35.0532 22.0778 36.2276 26.0407 36.4236 30.5694H18.8522C19.0482 26.0407 20.2226 22.0778 21.9068 19.25ZM34.7031 16.1439C37.3504 19.4924 39.1276 24.6764 39.3639 30.5694H46.1896C45.632 24.0316 41.046 18.5297 34.7031 16.1439ZM21.9068 44.5797C20.2226 41.7519 19.0482 37.7891 18.8522 33.2603H36.4236C36.2276 37.7891 35.0532 41.7519 33.369 44.5797C31.4594 47.786 29.3041 48.9571 27.6379 48.9571C25.9717 48.9571 23.8165 47.786 21.9068 44.5797ZM39.3639 33.2603C39.1276 39.1534 37.3504 44.3373 34.7031 47.6858C41.046 45.3 45.632 39.7981 46.1896 33.2603H39.3639ZM15.9119 33.2603C16.1482 39.1534 17.9255 44.3373 20.5728 47.6858C14.2298 45.3 9.6438 39.7981 9.08626 33.2603H15.9119Z" fill="#60E329"/>
</svg>
