<svg width="39" height="39" viewBox="0 0 39 39" fill="none" xmlns="http://www.w3.org/2000/svg">
<path d="M0 10C0 4.47715 4.47715 0 10 0H29C34.5228 0 39 4.47715 39 10V29C39 34.5228 34.5228 39 29 39H10C4.47715 39 0 34.5228 0 29V10Z" fill="#FAFAFA"/>
<path d="M26 15H14V28C14 28.1748 14.0974 28.4333 14.332 28.668C14.5667 28.9026 14.8252 29 15 29H25C25.1748 29 25.4333 28.9026 25.668 28.668C25.9026 28.4333 26 28.1748 26 28V15ZM17 25V19C17 18.4477 17.4477 18 18 18C18.5523 18 19 18.4477 19 19V25C19 25.5523 18.5523 26 18 26C17.4477 26 17 25.5523 17 25ZM21 25V19C21 18.4477 21.4477 18 22 18C22.5523 18 23 18.4477 23 19V25C23 25.5523 22.5523 26 22 26C21.4477 26 21 25.5523 21 25ZM23 12C23 11.8252 22.9026 11.5667 22.668 11.332C22.4333 11.0974 22.1748 11 22 11H18C17.8252 11 17.5667 11.0974 17.332 11.332C17.0974 11.5667 17 11.8252 17 12V13H23V12ZM25 13H29C29.5523 13 30 13.4477 30 14C30 14.5523 29.5523 15 29 15H28V28C28 28.8252 27.5974 29.5667 27.082 30.082C26.5667 30.5974 25.8252 31 25 31H15C14.1748 31 13.4333 30.5974 12.918 30.082C12.4026 29.5667 12 28.8252 12 28V15H11C10.4477 15 10 14.5523 10 14C10 13.4477 10.4477 13 11 13H15V12C15 11.1748 15.4026 10.4333 15.918 9.91797C16.4333 9.40262 17.1748 9 18 9H22C22.8252 9 23.5667 9.40262 24.082 9.91797C24.5974 10.4333 25 11.1748 25 12V13Z" fill="#8A8A8A"/>
</svg>
