<svg width="39" height="39" viewBox="0 0 39 39" fill="none" xmlns="http://www.w3.org/2000/svg">
<path d="M0 10C0 4.47715 4.47715 0 10 0H29C34.5228 0 39 4.47715 39 10V29C39 34.5228 34.5228 39 29 39H10C4.47715 39 0 34.5228 0 29V10Z" fill="#EFFDF4"/>
<path d="M28 20C27.9999 19.4478 27.5522 19 27 19H13C12.4478 19 12.0001 19.4478 12 20V27C12 27.5523 12.4477 28 13 28H27C27.5523 28 28 27.5523 28 27V20ZM30 27C30 28.6569 28.6569 30 27 30H13C11.3431 30 10 28.6569 10 27V20C10.0001 18.3433 11.3432 17 13 17H14V14C13.9988 12.5126 14.55 11.0776 15.5469 9.97363C16.5442 8.86939 17.9171 8.17493 19.3975 8.02539C20.8777 7.87599 22.3607 8.28172 23.5586 9.16406C24.6816 9.99132 25.4791 11.1823 25.8184 12.5293L25.8799 12.8008L25.8955 12.9023C25.9457 13.4067 25.6061 13.8774 25.0986 13.9805C24.5912 14.0833 24.0956 13.782 23.9453 13.2979L23.9199 13.1992L23.8789 13.0186C23.6528 12.1203 23.1209 11.326 22.3721 10.7744C21.5735 10.1862 20.5845 9.91595 19.5977 10.0156C18.6109 10.1154 17.696 10.5784 17.0312 11.3145C16.3666 12.0505 15.999 13.0073 16 13.999V17H27C28.6568 17 29.9999 18.3433 30 20V27Z" fill="#61E329"/>
</svg>
